<?xml version="1.0" encoding="utf-8" standalone="no"?>
<!DOCTYPE svg PUBLIC "-//W3C//DTD SVG 1.1//EN"
  "http://www.w3.org/Graphics/SVG/1.1/DTD/svg11.dtd">
<!-- Created with matplotlib (https://matplotlib.org/) -->
<svg height="504pt" version="1.1" viewBox="0 0 2160 504" width="2160pt" xmlns="http://www.w3.org/2000/svg" xmlns:xlink="http://www.w3.org/1999/xlink">
 <defs>
  <style type="text/css">
*{stroke-linecap:butt;stroke-linejoin:round;}
  </style>
 </defs>
 <g id="figure_1">
  <g id="patch_1">
   <path d="M 0 504 
L 2160 504 
L 2160 0 
L 0 0 
z
" style="fill:#ffffff;"/>
  </g>
  <g id="axes_1">
   <g id="patch_2">
    <path d="M 270 441 
L 558.62069 441 
L 558.62069 60.48 
L 270 60.48 
z
" style="fill:#ffffff;"/>
   </g>
   <g id="PathCollection_1">
    <defs>
     <path d="M 0 7.905694 
C 2.096615 7.905694 4.10764 7.0727 5.59017 5.59017 
C 7.0727 4.10764 7.905694 2.096615 7.905694 0 
C 7.905694 -2.096615 7.0727 -4.10764 5.59017 -5.59017 
C 4.10764 -7.0727 2.096615 -7.905694 0 -7.905694 
C -2.096615 -7.905694 -4.10764 -7.0727 -5.59017 -5.59017 
C -7.0727 -4.10764 -7.905694 -2.096615 -7.905694 0 
C -7.905694 2.096615 -7.0727 4.10764 -5.59017 5.59017 
C -4.10764 7.0727 -2.096615 7.905694 0 7.905694 
z
" id="m554da6655e" style="stroke:#1f77b4;"/>
    </defs>
    <g clip-path="url(#p22efc6c656)">
     <use style="fill:#1f77b4;stroke:#1f77b4;" x="381.419321" xlink:href="#m554da6655e" y="294.219078"/>
     <use style="fill:#1f77b4;stroke:#1f77b4;" x="434.890151" xlink:href="#m554da6655e" y="223.535282"/>
     <use style="fill:#1f77b4;stroke:#1f77b4;" x="369.879291" xlink:href="#m554da6655e" y="309.473996"/>
     <use style="fill:#1f77b4;stroke:#1f77b4;" x="439.583608" xlink:href="#m554da6655e" y="217.330939"/>
     <use style="fill:#1f77b4;stroke:#1f77b4;" x="299.666511" xlink:href="#m554da6655e" y="402.289197"/>
     <use style="fill:#1f77b4;stroke:#1f77b4;" x="453.207055" xlink:href="#m554da6655e" y="199.321926"/>
     <use style="fill:#1f77b4;stroke:#1f77b4;" x="431.295508" xlink:href="#m554da6655e" y="228.287089"/>
     <use style="fill:#1f77b4;stroke:#1f77b4;" x="480.896376" xlink:href="#m554da6655e" y="162.719046"/>
     <use style="fill:#1f77b4;stroke:#1f77b4;" x="467.279823" xlink:href="#m554da6655e" y="180.718948"/>
     <use style="fill:#1f77b4;stroke:#1f77b4;" x="437.724801" xlink:href="#m554da6655e" y="219.788121"/>
     <use style="fill:#1f77b4;stroke:#1f77b4;" x="544.061425" xlink:href="#m554da6655e" y="79.220334"/>
     <use style="fill:#1f77b4;stroke:#1f77b4;" x="397.053115" xlink:href="#m554da6655e" y="273.552559"/>
     <use style="fill:#1f77b4;stroke:#1f77b4;" x="433.972363" xlink:href="#m554da6655e" y="224.748518"/>
     <use style="fill:#1f77b4;stroke:#1f77b4;" x="353.496877" xlink:href="#m554da6655e" y="331.130126"/>
     <use style="fill:#1f77b4;stroke:#1f77b4;" x="413.55542" xlink:href="#m554da6655e" y="251.737945"/>
     <use style="fill:#1f77b4;stroke:#1f77b4;" x="478.180722" xlink:href="#m554da6655e" y="166.308906"/>
     <use style="fill:#1f77b4;stroke:#1f77b4;" x="284.559265" xlink:href="#m554da6655e" y="422.259666"/>
     <use style="fill:#1f77b4;stroke:#1f77b4;" x="329.310769" xlink:href="#m554da6655e" y="363.102061"/>
     <use style="fill:#1f77b4;stroke:#1f77b4;" x="487.019439" xlink:href="#m554da6655e" y="154.624889"/>
     <use style="fill:#1f77b4;stroke:#1f77b4;" x="448.03359" xlink:href="#m554da6655e" y="206.160798"/>
    </g>
   </g>
   <g id="matplotlib.axis_1">
    <g id="xtick_1"/>
    <g id="xtick_2"/>
    <g id="xtick_3"/>
    <g id="xtick_4"/>
    <g id="xtick_5"/>
   </g>
   <g id="matplotlib.axis_2">
    <g id="ytick_1"/>
    <g id="ytick_2"/>
    <g id="ytick_3"/>
    <g id="ytick_4"/>
    <g id="ytick_5"/>
   </g>
   <g id="patch_3">
    <path d="M 270 441 
L 270 60.48 
" style="fill:none;stroke:#000000;stroke-linecap:square;stroke-linejoin:miter;stroke-width:0.8;"/>
   </g>
   <g id="patch_4">
    <path d="M 558.62069 441 
L 558.62069 60.48 
" style="fill:none;stroke:#000000;stroke-linecap:square;stroke-linejoin:miter;stroke-width:0.8;"/>
   </g>
   <g id="patch_5">
    <path d="M 270 441 
L 558.62069 441 
" style="fill:none;stroke:#000000;stroke-linecap:square;stroke-linejoin:miter;stroke-width:0.8;"/>
   </g>
   <g id="patch_6">
    <path d="M 270 60.48 
L 558.62069 60.48 
" style="fill:none;stroke:#000000;stroke-linecap:square;stroke-linejoin:miter;stroke-width:0.8;"/>
   </g>
   <g id="text_1">
    <!-- corr. = 1 -->
    <defs>
     <path d="M 48.78125 52.59375 
L 48.78125 44.1875 
Q 44.96875 46.296875 41.140625 47.34375 
Q 37.3125 48.390625 33.40625 48.390625 
Q 24.65625 48.390625 19.8125 42.84375 
Q 14.984375 37.3125 14.984375 27.296875 
Q 14.984375 17.28125 19.8125 11.734375 
Q 24.65625 6.203125 33.40625 6.203125 
Q 37.3125 6.203125 41.140625 7.25 
Q 44.96875 8.296875 48.78125 10.40625 
L 48.78125 2.09375 
Q 45.015625 0.34375 40.984375 -0.53125 
Q 36.96875 -1.421875 32.421875 -1.421875 
Q 20.0625 -1.421875 12.78125 6.34375 
Q 5.515625 14.109375 5.515625 27.296875 
Q 5.515625 40.671875 12.859375 48.328125 
Q 20.21875 56 33.015625 56 
Q 37.15625 56 41.109375 55.140625 
Q 45.0625 54.296875 48.78125 52.59375 
z
" id="DejaVuSans-99"/>
     <path d="M 30.609375 48.390625 
Q 23.390625 48.390625 19.1875 42.75 
Q 14.984375 37.109375 14.984375 27.296875 
Q 14.984375 17.484375 19.15625 11.84375 
Q 23.34375 6.203125 30.609375 6.203125 
Q 37.796875 6.203125 41.984375 11.859375 
Q 46.1875 17.53125 46.1875 27.296875 
Q 46.1875 37.015625 41.984375 42.703125 
Q 37.796875 48.390625 30.609375 48.390625 
z
M 30.609375 56 
Q 42.328125 56 49.015625 48.375 
Q 55.71875 40.765625 55.71875 27.296875 
Q 55.71875 13.875 49.015625 6.21875 
Q 42.328125 -1.421875 30.609375 -1.421875 
Q 18.84375 -1.421875 12.171875 6.21875 
Q 5.515625 13.875 5.515625 27.296875 
Q 5.515625 40.765625 12.171875 48.375 
Q 18.84375 56 30.609375 56 
z
" id="DejaVuSans-111"/>
     <path d="M 41.109375 46.296875 
Q 39.59375 47.171875 37.8125 47.578125 
Q 36.03125 48 33.890625 48 
Q 26.265625 48 22.1875 43.046875 
Q 18.109375 38.09375 18.109375 28.8125 
L 18.109375 0 
L 9.078125 0 
L 9.078125 54.6875 
L 18.109375 54.6875 
L 18.109375 46.1875 
Q 20.953125 51.171875 25.484375 53.578125 
Q 30.03125 56 36.53125 56 
Q 37.453125 56 38.578125 55.875 
Q 39.703125 55.765625 41.0625 55.515625 
z
" id="DejaVuSans-114"/>
     <path d="M 10.6875 12.40625 
L 21 12.40625 
L 21 0 
L 10.6875 0 
z
" id="DejaVuSans-46"/>
     <path id="DejaVuSans-32"/>
     <path d="M 10.59375 45.40625 
L 73.1875 45.40625 
L 73.1875 37.203125 
L 10.59375 37.203125 
z
M 10.59375 25.484375 
L 73.1875 25.484375 
L 73.1875 17.1875 
L 10.59375 17.1875 
z
" id="DejaVuSans-61"/>
     <path d="M 12.40625 8.296875 
L 28.515625 8.296875 
L 28.515625 63.921875 
L 10.984375 60.40625 
L 10.984375 69.390625 
L 28.421875 72.90625 
L 38.28125 72.90625 
L 38.28125 8.296875 
L 54.390625 8.296875 
L 54.390625 0 
L 12.40625 0 
z
" id="DejaVuSans-49"/>
    </defs>
    <g transform="translate(293.035345 54.48)scale(0.55 -0.55)">
     <use xlink:href="#DejaVuSans-99"/>
     <use x="54.980469" xlink:href="#DejaVuSans-111"/>
     <use x="116.162109" xlink:href="#DejaVuSans-114"/>
     <use x="157.259766" xlink:href="#DejaVuSans-114"/>
     <use x="198.232422" xlink:href="#DejaVuSans-46"/>
     <use x="230.019531" xlink:href="#DejaVuSans-32"/>
     <use x="261.806641" xlink:href="#DejaVuSans-61"/>
     <use x="345.595703" xlink:href="#DejaVuSans-32"/>
     <use x="377.382812" xlink:href="#DejaVuSans-49"/>
    </g>
   </g>
  </g>
  <g id="axes_2">
   <g id="patch_7">
    <path d="M 616.344828 441 
L 904.965517 441 
L 904.965517 60.48 
L 616.344828 60.48 
z
" style="fill:#ffffff;"/>
   </g>
   <g id="PathCollection_2">
    <g clip-path="url(#p900e7b5b23)">
     <use style="fill:#1f77b4;stroke:#1f77b4;" x="727.764149" xlink:href="#m554da6655e" y="234.289884"/>
     <use style="fill:#1f77b4;stroke:#1f77b4;" x="781.234979" xlink:href="#m554da6655e" y="220.603545"/>
     <use style="fill:#1f77b4;stroke:#1f77b4;" x="716.224119" xlink:href="#m554da6655e" y="249.657535"/>
     <use style="fill:#1f77b4;stroke:#1f77b4;" x="785.928436" xlink:href="#m554da6655e" y="174.35308"/>
     <use style="fill:#1f77b4;stroke:#1f77b4;" x="646.011339" xlink:href="#m554da6655e" y="348.477121"/>
     <use style="fill:#1f77b4;stroke:#1f77b4;" x="799.551882" xlink:href="#m554da6655e" y="195.48034"/>
     <use style="fill:#1f77b4;stroke:#1f77b4;" x="777.640336" xlink:href="#m554da6655e" y="204.745234"/>
     <use style="fill:#1f77b4;stroke:#1f77b4;" x="827.241203" xlink:href="#m554da6655e" y="209.93428"/>
     <use style="fill:#1f77b4;stroke:#1f77b4;" x="813.62465" xlink:href="#m554da6655e" y="150.768199"/>
     <use style="fill:#1f77b4;stroke:#1f77b4;" x="784.069629" xlink:href="#m554da6655e" y="186.073691"/>
     <use style="fill:#1f77b4;stroke:#1f77b4;" x="890.406253" xlink:href="#m554da6655e" y="79.032203"/>
     <use style="fill:#1f77b4;stroke:#1f77b4;" x="743.397943" xlink:href="#m554da6655e" y="221.289932"/>
     <use style="fill:#1f77b4;stroke:#1f77b4;" x="780.317191" xlink:href="#m554da6655e" y="281.347176"/>
     <use style="fill:#1f77b4;stroke:#1f77b4;" x="699.841705" xlink:href="#m554da6655e" y="319.120835"/>
     <use style="fill:#1f77b4;stroke:#1f77b4;" x="759.900248" xlink:href="#m554da6655e" y="239.549662"/>
     <use style="fill:#1f77b4;stroke:#1f77b4;" x="824.525549" xlink:href="#m554da6655e" y="217.333227"/>
     <use style="fill:#1f77b4;stroke:#1f77b4;" x="630.904092" xlink:href="#m554da6655e" y="422.447797"/>
     <use style="fill:#1f77b4;stroke:#1f77b4;" x="675.655597" xlink:href="#m554da6655e" y="313.542266"/>
     <use style="fill:#1f77b4;stroke:#1f77b4;" x="833.364266" xlink:href="#m554da6655e" y="144.100153"/>
     <use style="fill:#1f77b4;stroke:#1f77b4;" x="794.378417" xlink:href="#m554da6655e" y="190.306397"/>
    </g>
   </g>
   <g id="matplotlib.axis_3">
    <g id="xtick_6"/>
    <g id="xtick_7"/>
    <g id="xtick_8"/>
    <g id="xtick_9"/>
    <g id="xtick_10"/>
   </g>
   <g id="matplotlib.axis_4">
    <g id="ytick_6"/>
    <g id="ytick_7"/>
    <g id="ytick_8"/>
    <g id="ytick_9"/>
    <g id="ytick_10"/>
    <g id="ytick_11"/>
   </g>
   <g id="patch_8">
    <path d="M 616.344828 441 
L 616.344828 60.48 
" style="fill:none;stroke:#000000;stroke-linecap:square;stroke-linejoin:miter;stroke-width:0.8;"/>
   </g>
   <g id="patch_9">
    <path d="M 904.965517 441 
L 904.965517 60.48 
" style="fill:none;stroke:#000000;stroke-linecap:square;stroke-linejoin:miter;stroke-width:0.8;"/>
   </g>
   <g id="patch_10">
    <path d="M 616.344828 441 
L 904.965517 441 
" style="fill:none;stroke:#000000;stroke-linecap:square;stroke-linejoin:miter;stroke-width:0.8;"/>
   </g>
   <g id="patch_11">
    <path d="M 616.344828 60.48 
L 904.965517 60.48 
" style="fill:none;stroke:#000000;stroke-linecap:square;stroke-linejoin:miter;stroke-width:0.8;"/>
   </g>
   <g id="text_2">
    <!-- large + corr. -->
    <defs>
     <path d="M 9.421875 75.984375 
L 18.40625 75.984375 
L 18.40625 0 
L 9.421875 0 
z
" id="DejaVuSans-108"/>
     <path d="M 34.28125 27.484375 
Q 23.390625 27.484375 19.1875 25 
Q 14.984375 22.515625 14.984375 16.5 
Q 14.984375 11.71875 18.140625 8.90625 
Q 21.296875 6.109375 26.703125 6.109375 
Q 34.1875 6.109375 38.703125 11.40625 
Q 43.21875 16.703125 43.21875 25.484375 
L 43.21875 27.484375 
z
M 52.203125 31.203125 
L 52.203125 0 
L 43.21875 0 
L 43.21875 8.296875 
Q 40.140625 3.328125 35.546875 0.953125 
Q 30.953125 -1.421875 24.3125 -1.421875 
Q 15.921875 -1.421875 10.953125 3.296875 
Q 6 8.015625 6 15.921875 
Q 6 25.140625 12.171875 29.828125 
Q 18.359375 34.515625 30.609375 34.515625 
L 43.21875 34.515625 
L 43.21875 35.40625 
Q 43.21875 41.609375 39.140625 45 
Q 35.0625 48.390625 27.6875 48.390625 
Q 23 48.390625 18.546875 47.265625 
Q 14.109375 46.140625 10.015625 43.890625 
L 10.015625 52.203125 
Q 14.9375 54.109375 19.578125 55.046875 
Q 24.21875 56 28.609375 56 
Q 40.484375 56 46.34375 49.84375 
Q 52.203125 43.703125 52.203125 31.203125 
z
" id="DejaVuSans-97"/>
     <path d="M 45.40625 27.984375 
Q 45.40625 37.75 41.375 43.109375 
Q 37.359375 48.484375 30.078125 48.484375 
Q 22.859375 48.484375 18.828125 43.109375 
Q 14.796875 37.75 14.796875 27.984375 
Q 14.796875 18.265625 18.828125 12.890625 
Q 22.859375 7.515625 30.078125 7.515625 
Q 37.359375 7.515625 41.375 12.890625 
Q 45.40625 18.265625 45.40625 27.984375 
z
M 54.390625 6.78125 
Q 54.390625 -7.171875 48.1875 -13.984375 
Q 42 -20.796875 29.203125 -20.796875 
Q 24.46875 -20.796875 20.265625 -20.09375 
Q 16.0625 -19.390625 12.109375 -17.921875 
L 12.109375 -9.1875 
Q 16.0625 -11.328125 19.921875 -12.34375 
Q 23.78125 -13.375 27.78125 -13.375 
Q 36.625 -13.375 41.015625 -8.765625 
Q 45.40625 -4.15625 45.40625 5.171875 
L 45.40625 9.625 
Q 42.625 4.78125 38.28125 2.390625 
Q 33.9375 0 27.875 0 
Q 17.828125 0 11.671875 7.65625 
Q 5.515625 15.328125 5.515625 27.984375 
Q 5.515625 40.671875 11.671875 48.328125 
Q 17.828125 56 27.875 56 
Q 33.9375 56 38.28125 53.609375 
Q 42.625 51.21875 45.40625 46.390625 
L 45.40625 54.6875 
L 54.390625 54.6875 
z
" id="DejaVuSans-103"/>
     <path d="M 56.203125 29.59375 
L 56.203125 25.203125 
L 14.890625 25.203125 
Q 15.484375 15.921875 20.484375 11.0625 
Q 25.484375 6.203125 34.421875 6.203125 
Q 39.59375 6.203125 44.453125 7.46875 
Q 49.3125 8.734375 54.109375 11.28125 
L 54.109375 2.78125 
Q 49.265625 0.734375 44.1875 -0.34375 
Q 39.109375 -1.421875 33.890625 -1.421875 
Q 20.796875 -1.421875 13.15625 6.1875 
Q 5.515625 13.8125 5.515625 26.8125 
Q 5.515625 40.234375 12.765625 48.109375 
Q 20.015625 56 32.328125 56 
Q 43.359375 56 49.78125 48.890625 
Q 56.203125 41.796875 56.203125 29.59375 
z
M 47.21875 32.234375 
Q 47.125 39.59375 43.09375 43.984375 
Q 39.0625 48.390625 32.421875 48.390625 
Q 24.90625 48.390625 20.390625 44.140625 
Q 15.875 39.890625 15.1875 32.171875 
z
" id="DejaVuSans-101"/>
     <path d="M 46 62.703125 
L 46 35.5 
L 73.1875 35.5 
L 73.1875 27.203125 
L 46 27.203125 
L 46 0 
L 37.796875 0 
L 37.796875 27.203125 
L 10.59375 27.203125 
L 10.59375 35.5 
L 37.796875 35.5 
L 37.796875 62.703125 
z
" id="DejaVuSans-43"/>
    </defs>
    <g transform="translate(586.704782 54.48)scale(0.55 -0.55)">
     <use xlink:href="#DejaVuSans-108"/>
     <use x="27.783203" xlink:href="#DejaVuSans-97"/>
     <use x="89.0625" xlink:href="#DejaVuSans-114"/>
     <use x="130.160156" xlink:href="#DejaVuSans-103"/>
     <use x="193.636719" xlink:href="#DejaVuSans-101"/>
     <use x="255.160156" xlink:href="#DejaVuSans-32"/>
     <use x="286.947266" xlink:href="#DejaVuSans-43"/>
     <use x="370.736328" xlink:href="#DejaVuSans-32"/>
     <use x="402.523438" xlink:href="#DejaVuSans-99"/>
     <use x="457.503906" xlink:href="#DejaVuSans-111"/>
     <use x="518.685547" xlink:href="#DejaVuSans-114"/>
     <use x="559.783203" xlink:href="#DejaVuSans-114"/>
     <use x="600.755859" xlink:href="#DejaVuSans-46"/>
    </g>
   </g>
  </g>
  <g id="axes_3">
   <g id="patch_12">
    <path d="M 962.689655 441 
L 1251.310345 441 
L 1251.310345 60.48 
L 962.689655 60.48 
z
" style="fill:#ffffff;"/>
   </g>
   <g id="PathCollection_3">
    <g clip-path="url(#p28bf434d5a)">
     <use style="fill:#1f77b4;stroke:#1f77b4;" x="1074.108976" xlink:href="#m554da6655e" y="149.33484"/>
     <use style="fill:#1f77b4;stroke:#1f77b4;" x="1127.579806" xlink:href="#m554da6655e" y="275.122584"/>
     <use style="fill:#1f77b4;stroke:#1f77b4;" x="1062.568947" xlink:href="#m554da6655e" y="233.142309"/>
     <use style="fill:#1f77b4;stroke:#1f77b4;" x="1132.273264" xlink:href="#m554da6655e" y="248.191184"/>
     <use style="fill:#1f77b4;stroke:#1f77b4;" x="992.356167" xlink:href="#m554da6655e" y="200.746857"/>
     <use style="fill:#1f77b4;stroke:#1f77b4;" x="1145.89671" xlink:href="#m554da6655e" y="221.093892"/>
     <use style="fill:#1f77b4;stroke:#1f77b4;" x="1123.985163" xlink:href="#m554da6655e" y="184.229061"/>
     <use style="fill:#1f77b4;stroke:#1f77b4;" x="1173.586031" xlink:href="#m554da6655e" y="263.933355"/>
     <use style="fill:#1f77b4;stroke:#1f77b4;" x="1159.969478" xlink:href="#m554da6655e" y="163.102016"/>
     <use style="fill:#1f77b4;stroke:#1f77b4;" x="1130.414456" xlink:href="#m554da6655e" y="79.730556"/>
     <use style="fill:#1f77b4;stroke:#1f77b4;" x="1236.75108" xlink:href="#m554da6655e" y="366.816053"/>
     <use style="fill:#1f77b4;stroke:#1f77b4;" x="1089.742771" xlink:href="#m554da6655e" y="271.189992"/>
     <use style="fill:#1f77b4;stroke:#1f77b4;" x="1126.662019" xlink:href="#m554da6655e" y="298.167526"/>
     <use style="fill:#1f77b4;stroke:#1f77b4;" x="1046.186532" xlink:href="#m554da6655e" y="281.763034"/>
     <use style="fill:#1f77b4;stroke:#1f77b4;" x="1106.245075" xlink:href="#m554da6655e" y="421.749444"/>
     <use style="fill:#1f77b4;stroke:#1f77b4;" x="1170.870377" xlink:href="#m554da6655e" y="421.579191"/>
     <use style="fill:#1f77b4;stroke:#1f77b4;" x="977.24892" xlink:href="#m554da6655e" y="286.434322"/>
     <use style="fill:#1f77b4;stroke:#1f77b4;" x="1022.000424" xlink:href="#m554da6655e" y="202.615575"/>
     <use style="fill:#1f77b4;stroke:#1f77b4;" x="1179.709094" xlink:href="#m554da6655e" y="300.558409"/>
     <use style="fill:#1f77b4;stroke:#1f77b4;" x="1140.723245" xlink:href="#m554da6655e" y="344.764176"/>
    </g>
   </g>
   <g id="matplotlib.axis_5">
    <g id="xtick_11"/>
    <g id="xtick_12"/>
    <g id="xtick_13"/>
    <g id="xtick_14"/>
    <g id="xtick_15"/>
   </g>
   <g id="matplotlib.axis_6">
    <g id="ytick_12"/>
    <g id="ytick_13"/>
    <g id="ytick_14"/>
    <g id="ytick_15"/>
    <g id="ytick_16"/>
    <g id="ytick_17"/>
    <g id="ytick_18"/>
    <g id="ytick_19"/>
   </g>
   <g id="patch_13">
    <path d="M 962.689655 441 
L 962.689655 60.48 
" style="fill:none;stroke:#000000;stroke-linecap:square;stroke-linejoin:miter;stroke-width:0.8;"/>
   </g>
   <g id="patch_14">
    <path d="M 1251.310345 441 
L 1251.310345 60.48 
" style="fill:none;stroke:#000000;stroke-linecap:square;stroke-linejoin:miter;stroke-width:0.8;"/>
   </g>
   <g id="patch_15">
    <path d="M 962.689655 441 
L 1251.310345 441 
" style="fill:none;stroke:#000000;stroke-linecap:square;stroke-linejoin:miter;stroke-width:0.8;"/>
   </g>
   <g id="patch_16">
    <path d="M 962.689655 60.48 
L 1251.310345 60.48 
" style="fill:none;stroke:#000000;stroke-linecap:square;stroke-linejoin:miter;stroke-width:0.8;"/>
   </g>
   <g id="text_3">
    <!-- corr. = 0 -->
    <defs>
     <path d="M 31.78125 66.40625 
Q 24.171875 66.40625 20.328125 58.90625 
Q 16.5 51.421875 16.5 36.375 
Q 16.5 21.390625 20.328125 13.890625 
Q 24.171875 6.390625 31.78125 6.390625 
Q 39.453125 6.390625 43.28125 13.890625 
Q 47.125 21.390625 47.125 36.375 
Q 47.125 51.421875 43.28125 58.90625 
Q 39.453125 66.40625 31.78125 66.40625 
z
M 31.78125 74.21875 
Q 44.046875 74.21875 50.515625 64.515625 
Q 56.984375 54.828125 56.984375 36.375 
Q 56.984375 17.96875 50.515625 8.265625 
Q 44.046875 -1.421875 31.78125 -1.421875 
Q 19.53125 -1.421875 13.0625 8.265625 
Q 6.59375 17.96875 6.59375 36.375 
Q 6.59375 54.828125 13.0625 64.515625 
Q 19.53125 74.21875 31.78125 74.21875 
z
" id="DejaVuSans-48"/>
    </defs>
    <g transform="translate(985.725 54.48)scale(0.55 -0.55)">
     <use xlink:href="#DejaVuSans-99"/>
     <use x="54.980469" xlink:href="#DejaVuSans-111"/>
     <use x="116.162109" xlink:href="#DejaVuSans-114"/>
     <use x="157.259766" xlink:href="#DejaVuSans-114"/>
     <use x="198.232422" xlink:href="#DejaVuSans-46"/>
     <use x="230.019531" xlink:href="#DejaVuSans-32"/>
     <use x="261.806641" xlink:href="#DejaVuSans-61"/>
     <use x="345.595703" xlink:href="#DejaVuSans-32"/>
     <use x="377.382812" xlink:href="#DejaVuSans-48"/>
    </g>
   </g>
  </g>
  <g id="axes_4">
   <g id="patch_17">
    <path d="M 1309.034483 441 
L 1597.655172 441 
L 1597.655172 60.48 
L 1309.034483 60.48 
z
" style="fill:#ffffff;"/>
   </g>
   <g id="PathCollection_4">
    <g clip-path="url(#p65c97babf7)">
     <use style="fill:#1f77b4;stroke:#1f77b4;" x="1420.453804" xlink:href="#m554da6655e" y="161.329278"/>
     <use style="fill:#1f77b4;stroke:#1f77b4;" x="1473.924634" xlink:href="#m554da6655e" y="287.344728"/>
     <use style="fill:#1f77b4;stroke:#1f77b4;" x="1408.913774" xlink:href="#m554da6655e" y="181.950277"/>
     <use style="fill:#1f77b4;stroke:#1f77b4;" x="1478.618091" xlink:href="#m554da6655e" y="290.51995"/>
     <use style="fill:#1f77b4;stroke:#1f77b4;" x="1338.700994" xlink:href="#m554da6655e" y="79.071984"/>
     <use style="fill:#1f77b4;stroke:#1f77b4;" x="1492.241537" xlink:href="#m554da6655e" y="267.014316"/>
     <use style="fill:#1f77b4;stroke:#1f77b4;" x="1470.329991" xlink:href="#m554da6655e" y="234.227194"/>
     <use style="fill:#1f77b4;stroke:#1f77b4;" x="1519.930859" xlink:href="#m554da6655e" y="319.257759"/>
     <use style="fill:#1f77b4;stroke:#1f77b4;" x="1506.314305" xlink:href="#m554da6655e" y="275.291585"/>
     <use style="fill:#1f77b4;stroke:#1f77b4;" x="1476.759284" xlink:href="#m554da6655e" y="200.956771"/>
     <use style="fill:#1f77b4;stroke:#1f77b4;" x="1583.095908" xlink:href="#m554da6655e" y="422.408016"/>
     <use style="fill:#1f77b4;stroke:#1f77b4;" x="1436.087598" xlink:href="#m554da6655e" y="186.08097"/>
     <use style="fill:#1f77b4;stroke:#1f77b4;" x="1473.006846" xlink:href="#m554da6655e" y="283.944485"/>
     <use style="fill:#1f77b4;stroke:#1f77b4;" x="1392.53136" xlink:href="#m554da6655e" y="181.074787"/>
     <use style="fill:#1f77b4;stroke:#1f77b4;" x="1452.589903" xlink:href="#m554da6655e" y="218.692121"/>
     <use style="fill:#1f77b4;stroke:#1f77b4;" x="1517.215205" xlink:href="#m554da6655e" y="279.063164"/>
     <use style="fill:#1f77b4;stroke:#1f77b4;" x="1323.593747" xlink:href="#m554da6655e" y="97.655764"/>
     <use style="fill:#1f77b4;stroke:#1f77b4;" x="1368.345252" xlink:href="#m554da6655e" y="134.867674"/>
     <use style="fill:#1f77b4;stroke:#1f77b4;" x="1526.053922" xlink:href="#m554da6655e" y="300.901316"/>
     <use style="fill:#1f77b4;stroke:#1f77b4;" x="1487.068072" xlink:href="#m554da6655e" y="245.490076"/>
    </g>
   </g>
   <g id="matplotlib.axis_7">
    <g id="xtick_16"/>
    <g id="xtick_17"/>
    <g id="xtick_18"/>
    <g id="xtick_19"/>
    <g id="xtick_20"/>
   </g>
   <g id="matplotlib.axis_8">
    <g id="ytick_20"/>
    <g id="ytick_21"/>
    <g id="ytick_22"/>
    <g id="ytick_23"/>
    <g id="ytick_24"/>
    <g id="ytick_25"/>
   </g>
   <g id="patch_18">
    <path d="M 1309.034483 441 
L 1309.034483 60.48 
" style="fill:none;stroke:#000000;stroke-linecap:square;stroke-linejoin:miter;stroke-width:0.8;"/>
   </g>
   <g id="patch_19">
    <path d="M 1597.655172 441 
L 1597.655172 60.48 
" style="fill:none;stroke:#000000;stroke-linecap:square;stroke-linejoin:miter;stroke-width:0.8;"/>
   </g>
   <g id="patch_20">
    <path d="M 1309.034483 441 
L 1597.655172 441 
" style="fill:none;stroke:#000000;stroke-linecap:square;stroke-linejoin:miter;stroke-width:0.8;"/>
   </g>
   <g id="patch_21">
    <path d="M 1309.034483 60.48 
L 1597.655172 60.48 
" style="fill:none;stroke:#000000;stroke-linecap:square;stroke-linejoin:miter;stroke-width:0.8;"/>
   </g>
   <g id="text_4">
    <!-- large - corr. -->
    <defs>
     <path d="M 4.890625 31.390625 
L 31.203125 31.390625 
L 31.203125 23.390625 
L 4.890625 23.390625 
z
" id="DejaVuSans-45"/>
    </defs>
    <g transform="translate(1292.517093 54.48)scale(0.55 -0.55)">
     <use xlink:href="#DejaVuSans-108"/>
     <use x="27.783203" xlink:href="#DejaVuSans-97"/>
     <use x="89.0625" xlink:href="#DejaVuSans-114"/>
     <use x="130.160156" xlink:href="#DejaVuSans-103"/>
     <use x="193.636719" xlink:href="#DejaVuSans-101"/>
     <use x="255.160156" xlink:href="#DejaVuSans-32"/>
     <use x="286.947266" xlink:href="#DejaVuSans-45"/>
     <use x="323.03125" xlink:href="#DejaVuSans-32"/>
     <use x="354.818359" xlink:href="#DejaVuSans-99"/>
     <use x="409.798828" xlink:href="#DejaVuSans-111"/>
     <use x="470.980469" xlink:href="#DejaVuSans-114"/>
     <use x="512.078125" xlink:href="#DejaVuSans-114"/>
     <use x="553.050781" xlink:href="#DejaVuSans-46"/>
    </g>
   </g>
  </g>
  <g id="axes_5">
   <g id="patch_22">
    <path d="M 1655.37931 441 
L 1944 441 
L 1944 60.48 
L 1655.37931 60.48 
z
" style="fill:#ffffff;"/>
   </g>
   <g id="PathCollection_5">
    <g clip-path="url(#p1e2827f1c9)">
     <use style="fill:#1f77b4;stroke:#1f77b4;" x="1766.798631" xlink:href="#m554da6655e" y="207.260922"/>
     <use style="fill:#1f77b4;stroke:#1f77b4;" x="1820.269462" xlink:href="#m554da6655e" y="277.944718"/>
     <use style="fill:#1f77b4;stroke:#1f77b4;" x="1755.258602" xlink:href="#m554da6655e" y="192.006004"/>
     <use style="fill:#1f77b4;stroke:#1f77b4;" x="1824.962919" xlink:href="#m554da6655e" y="284.149061"/>
     <use style="fill:#1f77b4;stroke:#1f77b4;" x="1685.045822" xlink:href="#m554da6655e" y="99.190803"/>
     <use style="fill:#1f77b4;stroke:#1f77b4;" x="1838.586365" xlink:href="#m554da6655e" y="302.158074"/>
     <use style="fill:#1f77b4;stroke:#1f77b4;" x="1816.674818" xlink:href="#m554da6655e" y="273.192911"/>
     <use style="fill:#1f77b4;stroke:#1f77b4;" x="1866.275686" xlink:href="#m554da6655e" y="338.760954"/>
     <use style="fill:#1f77b4;stroke:#1f77b4;" x="1852.659133" xlink:href="#m554da6655e" y="320.761052"/>
     <use style="fill:#1f77b4;stroke:#1f77b4;" x="1823.104111" xlink:href="#m554da6655e" y="281.691879"/>
     <use style="fill:#1f77b4;stroke:#1f77b4;" x="1929.440735" xlink:href="#m554da6655e" y="422.259666"/>
     <use style="fill:#1f77b4;stroke:#1f77b4;" x="1782.432426" xlink:href="#m554da6655e" y="227.927441"/>
     <use style="fill:#1f77b4;stroke:#1f77b4;" x="1819.351674" xlink:href="#m554da6655e" y="276.731482"/>
     <use style="fill:#1f77b4;stroke:#1f77b4;" x="1738.876187" xlink:href="#m554da6655e" y="170.349874"/>
     <use style="fill:#1f77b4;stroke:#1f77b4;" x="1798.934731" xlink:href="#m554da6655e" y="249.742055"/>
     <use style="fill:#1f77b4;stroke:#1f77b4;" x="1863.560032" xlink:href="#m554da6655e" y="335.171094"/>
     <use style="fill:#1f77b4;stroke:#1f77b4;" x="1669.938575" xlink:href="#m554da6655e" y="79.220334"/>
     <use style="fill:#1f77b4;stroke:#1f77b4;" x="1714.690079" xlink:href="#m554da6655e" y="138.377939"/>
     <use style="fill:#1f77b4;stroke:#1f77b4;" x="1872.398749" xlink:href="#m554da6655e" y="346.855111"/>
     <use style="fill:#1f77b4;stroke:#1f77b4;" x="1833.4129" xlink:href="#m554da6655e" y="295.319202"/>
    </g>
   </g>
   <g id="matplotlib.axis_9">
    <g id="xtick_21"/>
    <g id="xtick_22"/>
    <g id="xtick_23"/>
    <g id="xtick_24"/>
    <g id="xtick_25"/>
   </g>
   <g id="matplotlib.axis_10">
    <g id="ytick_26"/>
    <g id="ytick_27"/>
    <g id="ytick_28"/>
    <g id="ytick_29"/>
    <g id="ytick_30"/>
   </g>
   <g id="patch_23">
    <path d="M 1655.37931 441 
L 1655.37931 60.48 
" style="fill:none;stroke:#000000;stroke-linecap:square;stroke-linejoin:miter;stroke-width:0.8;"/>
   </g>
   <g id="patch_24">
    <path d="M 1944 441 
L 1944 60.48 
" style="fill:none;stroke:#000000;stroke-linecap:square;stroke-linejoin:miter;stroke-width:0.8;"/>
   </g>
   <g id="patch_25">
    <path d="M 1655.37931 441 
L 1944 441 
" style="fill:none;stroke:#000000;stroke-linecap:square;stroke-linejoin:miter;stroke-width:0.8;"/>
   </g>
   <g id="patch_26">
    <path d="M 1655.37931 60.48 
L 1944 60.48 
" style="fill:none;stroke:#000000;stroke-linecap:square;stroke-linejoin:miter;stroke-width:0.8;"/>
   </g>
   <g id="text_5">
    <!-- corr. = -1 -->
    <g transform="translate(1668.493171 54.48)scale(0.55 -0.55)">
     <use xlink:href="#DejaVuSans-99"/>
     <use x="54.980469" xlink:href="#DejaVuSans-111"/>
     <use x="116.162109" xlink:href="#DejaVuSans-114"/>
     <use x="157.259766" xlink:href="#DejaVuSans-114"/>
     <use x="198.232422" xlink:href="#DejaVuSans-46"/>
     <use x="230.019531" xlink:href="#DejaVuSans-32"/>
     <use x="261.806641" xlink:href="#DejaVuSans-61"/>
     <use x="345.595703" xlink:href="#DejaVuSans-32"/>
     <use x="377.382812" xlink:href="#DejaVuSans-45"/>
     <use x="413.466797" xlink:href="#DejaVuSans-49"/>
    </g>
   </g>
  </g>
 </g>
 <defs>
  <clipPath id="p22efc6c656">
   <rect height="380.52" width="288.62069" x="270" y="60.48"/>
  </clipPath>
  <clipPath id="p900e7b5b23">
   <rect height="380.52" width="288.62069" x="616.344828" y="60.48"/>
  </clipPath>
  <clipPath id="p28bf434d5a">
   <rect height="380.52" width="288.62069" x="962.689655" y="60.48"/>
  </clipPath>
  <clipPath id="p65c97babf7">
   <rect height="380.52" width="288.62069" x="1309.034483" y="60.48"/>
  </clipPath>
  <clipPath id="p1e2827f1c9">
   <rect height="380.52" width="288.62069" x="1655.37931" y="60.48"/>
  </clipPath>
 </defs>
</svg>
