<?xml version="1.0" encoding="utf-8" standalone="no"?>
<!DOCTYPE svg PUBLIC "-//W3C//DTD SVG 1.1//EN"
  "http://www.w3.org/Graphics/SVG/1.1/DTD/svg11.dtd">
<!-- Created with matplotlib (https://matplotlib.org/) -->
<svg height="288pt" version="1.1" viewBox="0 0 1080 288" width="1080pt" xmlns="http://www.w3.org/2000/svg" xmlns:xlink="http://www.w3.org/1999/xlink">
 <defs>
  <style type="text/css">
*{stroke-linecap:butt;stroke-linejoin:round;}
  </style>
 </defs>
 <g id="figure_1">
  <g id="patch_1">
   <path d="M 0 288 
L 1080 288 
L 1080 0 
L 0 0 
z
" style="fill:#ffffff;"/>
  </g>
  <g id="axes_1">
   <g id="patch_2">
    <path d="M 135 252 
L 381.176471 252 
L 381.176471 34.56 
L 135 34.56 
z
" style="fill:#ffffff;"/>
   </g>
   <g id="PathCollection_1">
    <defs>
     <path d="M 0 3 
C 0.795609 3 1.55874 2.683901 2.12132 2.12132 
C 2.683901 1.55874 3 0.795609 3 0 
C 3 -0.795609 2.683901 -1.55874 2.12132 -2.12132 
C 1.55874 -2.683901 0.795609 -3 0 -3 
C -0.795609 -3 -1.55874 -2.683901 -2.12132 -2.12132 
C -2.683901 -1.55874 -3 -0.795609 -3 0 
C -3 0.795609 -2.683901 1.55874 -2.12132 2.12132 
C -1.55874 2.683901 -0.795609 3 0 3 
z
" id="me68a479173" style="stroke:#1f77b4;"/>
    </defs>
    <g clip-path="url(#p11f445e7ad)">
     <use style="fill:#1f77b4;stroke:#1f77b4;" x="229.862129" xlink:href="#me68a479173" y="177.418601"/>
     <use style="fill:#1f77b4;stroke:#1f77b4;" x="275.749218" xlink:href="#me68a479173" y="129.35933"/>
     <use style="fill:#1f77b4;stroke:#1f77b4;" x="219.958816" xlink:href="#me68a479173" y="185.095475"/>
     <use style="fill:#1f77b4;stroke:#1f77b4;" x="279.777005" xlink:href="#me68a479173" y="131.745545"/>
     <use style="fill:#1f77b4;stroke:#1f77b4;" x="159.704279" xlink:href="#me68a479173" y="232.684693"/>
     <use style="fill:#1f77b4;stroke:#1f77b4;" x="291.468244" xlink:href="#me68a479173" y="115.175942"/>
     <use style="fill:#1f77b4;stroke:#1f77b4;" x="272.664401" xlink:href="#me68a479173" y="137.767793"/>
     <use style="fill:#1f77b4;stroke:#1f77b4;" x="315.230403" xlink:href="#me68a479173" y="98.461948"/>
     <use style="fill:#1f77b4;stroke:#1f77b4;" x="303.545079" xlink:href="#me68a479173" y="106.034413"/>
     <use style="fill:#1f77b4;stroke:#1f77b4;" x="278.181831" xlink:href="#me68a479173" y="127.093747"/>
     <use style="fill:#1f77b4;stroke:#1f77b4;" x="369.436785" xlink:href="#me68a479173" y="44.989049"/>
     <use style="fill:#1f77b4;stroke:#1f77b4;" x="243.27859" xlink:href="#me68a479173" y="160.808762"/>
     <use style="fill:#1f77b4;stroke:#1f77b4;" x="274.9616" xlink:href="#me68a479173" y="131.285446"/>
     <use style="fill:#1f77b4;stroke:#1f77b4;" x="205.899911" xlink:href="#me68a479173" y="192.426103"/>
     <use style="fill:#1f77b4;stroke:#1f77b4;" x="257.440381" xlink:href="#me68a479173" y="145.275092"/>
     <use style="fill:#1f77b4;stroke:#1f77b4;" x="312.899909" xlink:href="#me68a479173" y="97.539545"/>
     <use style="fill:#1f77b4;stroke:#1f77b4;" x="146.739686" xlink:href="#me68a479173" y="241.570951"/>
     <use style="fill:#1f77b4;stroke:#1f77b4;" x="185.144107" xlink:href="#me68a479173" y="211.272848"/>
     <use style="fill:#1f77b4;stroke:#1f77b4;" x="320.485035" xlink:href="#me68a479173" y="88.456578"/>
     <use style="fill:#1f77b4;stroke:#1f77b4;" x="287.028529" xlink:href="#me68a479173" y="114.265458"/>
     <use style="fill:#1f77b4;stroke:#1f77b4;" x="324.543692" xlink:href="#me68a479173" y="93.462289"/>
     <use style="fill:#1f77b4;stroke:#1f77b4;" x="253.201571" xlink:href="#me68a479173" y="151.949495"/>
     <use style="fill:#1f77b4;stroke:#1f77b4;" x="321.408262" xlink:href="#me68a479173" y="93.324226"/>
     <use style="fill:#1f77b4;stroke:#1f77b4;" x="314.192381" xlink:href="#me68a479173" y="98.956951"/>
     <use style="fill:#1f77b4;stroke:#1f77b4;" x="294.391578" xlink:href="#me68a479173" y="122.188709"/>
     <use style="fill:#1f77b4;stroke:#1f77b4;" x="259.269443" xlink:href="#me68a479173" y="152.953702"/>
     <use style="fill:#1f77b4;stroke:#1f77b4;" x="283.045756" xlink:href="#me68a479173" y="126.442293"/>
     <use style="fill:#1f77b4;stroke:#1f77b4;" x="190.167132" xlink:href="#me68a479173" y="204.294878"/>
     <use style="fill:#1f77b4;stroke:#1f77b4;" x="301.865624" xlink:href="#me68a479173" y="110.546932"/>
     <use style="fill:#1f77b4;stroke:#1f77b4;" x="299.885266" xlink:href="#me68a479173" y="114.139896"/>
     <use style="fill:#1f77b4;stroke:#1f77b4;" x="277.175427" xlink:href="#me68a479173" y="131.524782"/>
     <use style="fill:#1f77b4;stroke:#1f77b4;" x="317.118135" xlink:href="#me68a479173" y="93.302173"/>
     <use style="fill:#1f77b4;stroke:#1f77b4;" x="164.093872" xlink:href="#me68a479173" y="226.090791"/>
     <use style="fill:#1f77b4;stroke:#1f77b4;" x="245.825719" xlink:href="#me68a479173" y="157.408086"/>
     <use style="fill:#1f77b4;stroke:#1f77b4;" x="261.53497" xlink:href="#me68a479173" y="144.549876"/>
     <use style="fill:#1f77b4;stroke:#1f77b4;" x="183.782382" xlink:href="#me68a479173" y="207.029737"/>
     <use style="fill:#1f77b4;stroke:#1f77b4;" x="209.891441" xlink:href="#me68a479173" y="192.531724"/>
     <use style="fill:#1f77b4;stroke:#1f77b4;" x="295.66546" xlink:href="#me68a479173" y="114.434323"/>
     <use style="fill:#1f77b4;stroke:#1f77b4;" x="277.940302" xlink:href="#me68a479173" y="126.092207"/>
     <use style="fill:#1f77b4;stroke:#1f77b4;" x="275.872948" xlink:href="#me68a479173" y="137.838208"/>
     <use style="fill:#1f77b4;stroke:#1f77b4;" x="304.441995" xlink:href="#me68a479173" y="113.808429"/>
     <use style="fill:#1f77b4;stroke:#1f77b4;" x="213.866431" xlink:href="#me68a479173" y="182.906857"/>
     <use style="fill:#1f77b4;stroke:#1f77b4;" x="254.795901" xlink:href="#me68a479173" y="155.032449"/>
     <use style="fill:#1f77b4;stroke:#1f77b4;" x="217.327322" xlink:href="#me68a479173" y="188.411215"/>
     <use style="fill:#1f77b4;stroke:#1f77b4;" x="283.156116" xlink:href="#me68a479173" y="129.297505"/>
     <use style="fill:#1f77b4;stroke:#1f77b4;" x="274.723457" xlink:href="#me68a479173" y="129.707846"/>
     <use style="fill:#1f77b4;stroke:#1f77b4;" x="284.560139" xlink:href="#me68a479173" y="122.078381"/>
     <use style="fill:#1f77b4;stroke:#1f77b4;" x="246.64928" xlink:href="#me68a479173" y="150.965165"/>
     <use style="fill:#1f77b4;stroke:#1f77b4;" x="286.899565" xlink:href="#me68a479173" y="123.240365"/>
     <use style="fill:#1f77b4;stroke:#1f77b4;" x="343.738722" xlink:href="#me68a479173" y="73.664549"/>
    </g>
   </g>
   <g id="matplotlib.axis_1">
    <g id="xtick_1"/>
    <g id="xtick_2"/>
    <g id="xtick_3"/>
    <g id="xtick_4"/>
    <g id="xtick_5"/>
   </g>
   <g id="matplotlib.axis_2">
    <g id="ytick_1"/>
    <g id="ytick_2"/>
    <g id="ytick_3"/>
    <g id="ytick_4"/>
    <g id="ytick_5"/>
   </g>
   <g id="patch_3">
    <path d="M 135 252 
L 135 34.56 
" style="fill:none;stroke:#000000;stroke-linecap:square;stroke-linejoin:miter;stroke-width:0.8;"/>
   </g>
   <g id="patch_4">
    <path d="M 381.176471 252 
L 381.176471 34.56 
" style="fill:none;stroke:#000000;stroke-linecap:square;stroke-linejoin:miter;stroke-width:0.8;"/>
   </g>
   <g id="patch_5">
    <path d="M 135 252 
L 381.176471 252 
" style="fill:none;stroke:#000000;stroke-linecap:square;stroke-linejoin:miter;stroke-width:0.8;"/>
   </g>
   <g id="patch_6">
    <path d="M 135 34.56 
L 381.176471 34.56 
" style="fill:none;stroke:#000000;stroke-linecap:square;stroke-linejoin:miter;stroke-width:0.8;"/>
   </g>
   <g id="text_1">
    <!-- large positive covariance -->
    <defs>
     <path d="M 9.421875 75.984375 
L 18.40625 75.984375 
L 18.40625 0 
L 9.421875 0 
z
" id="DejaVuSans-108"/>
     <path d="M 34.28125 27.484375 
Q 23.390625 27.484375 19.1875 25 
Q 14.984375 22.515625 14.984375 16.5 
Q 14.984375 11.71875 18.140625 8.90625 
Q 21.296875 6.109375 26.703125 6.109375 
Q 34.1875 6.109375 38.703125 11.40625 
Q 43.21875 16.703125 43.21875 25.484375 
L 43.21875 27.484375 
z
M 52.203125 31.203125 
L 52.203125 0 
L 43.21875 0 
L 43.21875 8.296875 
Q 40.140625 3.328125 35.546875 0.953125 
Q 30.953125 -1.421875 24.3125 -1.421875 
Q 15.921875 -1.421875 10.953125 3.296875 
Q 6 8.015625 6 15.921875 
Q 6 25.140625 12.171875 29.828125 
Q 18.359375 34.515625 30.609375 34.515625 
L 43.21875 34.515625 
L 43.21875 35.40625 
Q 43.21875 41.609375 39.140625 45 
Q 35.0625 48.390625 27.6875 48.390625 
Q 23 48.390625 18.546875 47.265625 
Q 14.109375 46.140625 10.015625 43.890625 
L 10.015625 52.203125 
Q 14.9375 54.109375 19.578125 55.046875 
Q 24.21875 56 28.609375 56 
Q 40.484375 56 46.34375 49.84375 
Q 52.203125 43.703125 52.203125 31.203125 
z
" id="DejaVuSans-97"/>
     <path d="M 41.109375 46.296875 
Q 39.59375 47.171875 37.8125 47.578125 
Q 36.03125 48 33.890625 48 
Q 26.265625 48 22.1875 43.046875 
Q 18.109375 38.09375 18.109375 28.8125 
L 18.109375 0 
L 9.078125 0 
L 9.078125 54.6875 
L 18.109375 54.6875 
L 18.109375 46.1875 
Q 20.953125 51.171875 25.484375 53.578125 
Q 30.03125 56 36.53125 56 
Q 37.453125 56 38.578125 55.875 
Q 39.703125 55.765625 41.0625 55.515625 
z
" id="DejaVuSans-114"/>
     <path d="M 45.40625 27.984375 
Q 45.40625 37.75 41.375 43.109375 
Q 37.359375 48.484375 30.078125 48.484375 
Q 22.859375 48.484375 18.828125 43.109375 
Q 14.796875 37.75 14.796875 27.984375 
Q 14.796875 18.265625 18.828125 12.890625 
Q 22.859375 7.515625 30.078125 7.515625 
Q 37.359375 7.515625 41.375 12.890625 
Q 45.40625 18.265625 45.40625 27.984375 
z
M 54.390625 6.78125 
Q 54.390625 -7.171875 48.1875 -13.984375 
Q 42 -20.796875 29.203125 -20.796875 
Q 24.46875 -20.796875 20.265625 -20.09375 
Q 16.0625 -19.390625 12.109375 -17.921875 
L 12.109375 -9.1875 
Q 16.0625 -11.328125 19.921875 -12.34375 
Q 23.78125 -13.375 27.78125 -13.375 
Q 36.625 -13.375 41.015625 -8.765625 
Q 45.40625 -4.15625 45.40625 5.171875 
L 45.40625 9.625 
Q 42.625 4.78125 38.28125 2.390625 
Q 33.9375 0 27.875 0 
Q 17.828125 0 11.671875 7.65625 
Q 5.515625 15.328125 5.515625 27.984375 
Q 5.515625 40.671875 11.671875 48.328125 
Q 17.828125 56 27.875 56 
Q 33.9375 56 38.28125 53.609375 
Q 42.625 51.21875 45.40625 46.390625 
L 45.40625 54.6875 
L 54.390625 54.6875 
z
" id="DejaVuSans-103"/>
     <path d="M 56.203125 29.59375 
L 56.203125 25.203125 
L 14.890625 25.203125 
Q 15.484375 15.921875 20.484375 11.0625 
Q 25.484375 6.203125 34.421875 6.203125 
Q 39.59375 6.203125 44.453125 7.46875 
Q 49.3125 8.734375 54.109375 11.28125 
L 54.109375 2.78125 
Q 49.265625 0.734375 44.1875 -0.34375 
Q 39.109375 -1.421875 33.890625 -1.421875 
Q 20.796875 -1.421875 13.15625 6.1875 
Q 5.515625 13.8125 5.515625 26.8125 
Q 5.515625 40.234375 12.765625 48.109375 
Q 20.015625 56 32.328125 56 
Q 43.359375 56 49.78125 48.890625 
Q 56.203125 41.796875 56.203125 29.59375 
z
M 47.21875 32.234375 
Q 47.125 39.59375 43.09375 43.984375 
Q 39.0625 48.390625 32.421875 48.390625 
Q 24.90625 48.390625 20.390625 44.140625 
Q 15.875 39.890625 15.1875 32.171875 
z
" id="DejaVuSans-101"/>
     <path id="DejaVuSans-32"/>
     <path d="M 18.109375 8.203125 
L 18.109375 -20.796875 
L 9.078125 -20.796875 
L 9.078125 54.6875 
L 18.109375 54.6875 
L 18.109375 46.390625 
Q 20.953125 51.265625 25.265625 53.625 
Q 29.59375 56 35.59375 56 
Q 45.5625 56 51.78125 48.09375 
Q 58.015625 40.1875 58.015625 27.296875 
Q 58.015625 14.40625 51.78125 6.484375 
Q 45.5625 -1.421875 35.59375 -1.421875 
Q 29.59375 -1.421875 25.265625 0.953125 
Q 20.953125 3.328125 18.109375 8.203125 
z
M 48.6875 27.296875 
Q 48.6875 37.203125 44.609375 42.84375 
Q 40.53125 48.484375 33.40625 48.484375 
Q 26.265625 48.484375 22.1875 42.84375 
Q 18.109375 37.203125 18.109375 27.296875 
Q 18.109375 17.390625 22.1875 11.75 
Q 26.265625 6.109375 33.40625 6.109375 
Q 40.53125 6.109375 44.609375 11.75 
Q 48.6875 17.390625 48.6875 27.296875 
z
" id="DejaVuSans-112"/>
     <path d="M 30.609375 48.390625 
Q 23.390625 48.390625 19.1875 42.75 
Q 14.984375 37.109375 14.984375 27.296875 
Q 14.984375 17.484375 19.15625 11.84375 
Q 23.34375 6.203125 30.609375 6.203125 
Q 37.796875 6.203125 41.984375 11.859375 
Q 46.1875 17.53125 46.1875 27.296875 
Q 46.1875 37.015625 41.984375 42.703125 
Q 37.796875 48.390625 30.609375 48.390625 
z
M 30.609375 56 
Q 42.328125 56 49.015625 48.375 
Q 55.71875 40.765625 55.71875 27.296875 
Q 55.71875 13.875 49.015625 6.21875 
Q 42.328125 -1.421875 30.609375 -1.421875 
Q 18.84375 -1.421875 12.171875 6.21875 
Q 5.515625 13.875 5.515625 27.296875 
Q 5.515625 40.765625 12.171875 48.375 
Q 18.84375 56 30.609375 56 
z
" id="DejaVuSans-111"/>
     <path d="M 44.28125 53.078125 
L 44.28125 44.578125 
Q 40.484375 46.53125 36.375 47.5 
Q 32.28125 48.484375 27.875 48.484375 
Q 21.1875 48.484375 17.84375 46.4375 
Q 14.5 44.390625 14.5 40.28125 
Q 14.5 37.15625 16.890625 35.375 
Q 19.28125 33.59375 26.515625 31.984375 
L 29.59375 31.296875 
Q 39.15625 29.25 43.1875 25.515625 
Q 47.21875 21.78125 47.21875 15.09375 
Q 47.21875 7.46875 41.1875 3.015625 
Q 35.15625 -1.421875 24.609375 -1.421875 
Q 20.21875 -1.421875 15.453125 -0.5625 
Q 10.6875 0.296875 5.421875 2 
L 5.421875 11.28125 
Q 10.40625 8.6875 15.234375 7.390625 
Q 20.0625 6.109375 24.8125 6.109375 
Q 31.15625 6.109375 34.5625 8.28125 
Q 37.984375 10.453125 37.984375 14.40625 
Q 37.984375 18.0625 35.515625 20.015625 
Q 33.0625 21.96875 24.703125 23.78125 
L 21.578125 24.515625 
Q 13.234375 26.265625 9.515625 29.90625 
Q 5.8125 33.546875 5.8125 39.890625 
Q 5.8125 47.609375 11.28125 51.796875 
Q 16.75 56 26.8125 56 
Q 31.78125 56 36.171875 55.265625 
Q 40.578125 54.546875 44.28125 53.078125 
z
" id="DejaVuSans-115"/>
     <path d="M 9.421875 54.6875 
L 18.40625 54.6875 
L 18.40625 0 
L 9.421875 0 
z
M 9.421875 75.984375 
L 18.40625 75.984375 
L 18.40625 64.59375 
L 9.421875 64.59375 
z
" id="DejaVuSans-105"/>
     <path d="M 18.3125 70.21875 
L 18.3125 54.6875 
L 36.8125 54.6875 
L 36.8125 47.703125 
L 18.3125 47.703125 
L 18.3125 18.015625 
Q 18.3125 11.328125 20.140625 9.421875 
Q 21.96875 7.515625 27.59375 7.515625 
L 36.8125 7.515625 
L 36.8125 0 
L 27.59375 0 
Q 17.1875 0 13.234375 3.875 
Q 9.28125 7.765625 9.28125 18.015625 
L 9.28125 47.703125 
L 2.6875 47.703125 
L 2.6875 54.6875 
L 9.28125 54.6875 
L 9.28125 70.21875 
z
" id="DejaVuSans-116"/>
     <path d="M 2.984375 54.6875 
L 12.5 54.6875 
L 29.59375 8.796875 
L 46.6875 54.6875 
L 56.203125 54.6875 
L 35.6875 0 
L 23.484375 0 
z
" id="DejaVuSans-118"/>
     <path d="M 48.78125 52.59375 
L 48.78125 44.1875 
Q 44.96875 46.296875 41.140625 47.34375 
Q 37.3125 48.390625 33.40625 48.390625 
Q 24.65625 48.390625 19.8125 42.84375 
Q 14.984375 37.3125 14.984375 27.296875 
Q 14.984375 17.28125 19.8125 11.734375 
Q 24.65625 6.203125 33.40625 6.203125 
Q 37.3125 6.203125 41.140625 7.25 
Q 44.96875 8.296875 48.78125 10.40625 
L 48.78125 2.09375 
Q 45.015625 0.34375 40.984375 -0.53125 
Q 36.96875 -1.421875 32.421875 -1.421875 
Q 20.0625 -1.421875 12.78125 6.34375 
Q 5.515625 14.109375 5.515625 27.296875 
Q 5.515625 40.671875 12.859375 48.328125 
Q 20.21875 56 33.015625 56 
Q 37.15625 56 41.109375 55.140625 
Q 45.0625 54.296875 48.78125 52.59375 
z
" id="DejaVuSans-99"/>
     <path d="M 54.890625 33.015625 
L 54.890625 0 
L 45.90625 0 
L 45.90625 32.71875 
Q 45.90625 40.484375 42.875 44.328125 
Q 39.84375 48.1875 33.796875 48.1875 
Q 26.515625 48.1875 22.3125 43.546875 
Q 18.109375 38.921875 18.109375 30.90625 
L 18.109375 0 
L 9.078125 0 
L 9.078125 54.6875 
L 18.109375 54.6875 
L 18.109375 46.1875 
Q 21.34375 51.125 25.703125 53.5625 
Q 30.078125 56 35.796875 56 
Q 45.21875 56 50.046875 50.171875 
Q 54.890625 44.34375 54.890625 33.015625 
z
" id="DejaVuSans-110"/>
    </defs>
    <g transform="translate(132.319485 28.56)scale(0.2 -0.2)">
     <use xlink:href="#DejaVuSans-108"/>
     <use x="27.783203" xlink:href="#DejaVuSans-97"/>
     <use x="89.0625" xlink:href="#DejaVuSans-114"/>
     <use x="130.160156" xlink:href="#DejaVuSans-103"/>
     <use x="193.636719" xlink:href="#DejaVuSans-101"/>
     <use x="255.160156" xlink:href="#DejaVuSans-32"/>
     <use x="286.947266" xlink:href="#DejaVuSans-112"/>
     <use x="350.423828" xlink:href="#DejaVuSans-111"/>
     <use x="411.605469" xlink:href="#DejaVuSans-115"/>
     <use x="463.705078" xlink:href="#DejaVuSans-105"/>
     <use x="491.488281" xlink:href="#DejaVuSans-116"/>
     <use x="530.697266" xlink:href="#DejaVuSans-105"/>
     <use x="558.480469" xlink:href="#DejaVuSans-118"/>
     <use x="617.660156" xlink:href="#DejaVuSans-101"/>
     <use x="679.183594" xlink:href="#DejaVuSans-32"/>
     <use x="710.970703" xlink:href="#DejaVuSans-99"/>
     <use x="765.951172" xlink:href="#DejaVuSans-111"/>
     <use x="827.132812" xlink:href="#DejaVuSans-118"/>
     <use x="886.3125" xlink:href="#DejaVuSans-97"/>
     <use x="947.591797" xlink:href="#DejaVuSans-114"/>
     <use x="988.705078" xlink:href="#DejaVuSans-105"/>
     <use x="1016.488281" xlink:href="#DejaVuSans-97"/>
     <use x="1077.767578" xlink:href="#DejaVuSans-110"/>
     <use x="1141.146484" xlink:href="#DejaVuSans-99"/>
     <use x="1196.126953" xlink:href="#DejaVuSans-101"/>
    </g>
   </g>
  </g>
  <g id="axes_2">
   <g id="patch_7">
    <path d="M 430.411765 252 
L 676.588235 252 
L 676.588235 34.56 
L 430.411765 34.56 
z
" style="fill:#ffffff;"/>
   </g>
   <g id="PathCollection_2">
    <g clip-path="url(#pdd628d3d34)">
     <use style="fill:#1f77b4;stroke:#1f77b4;" x="525.273894" xlink:href="#me68a479173" y="171.07058"/>
     <use style="fill:#1f77b4;stroke:#1f77b4;" x="571.160983" xlink:href="#me68a479173" y="139.451184"/>
     <use style="fill:#1f77b4;stroke:#1f77b4;" x="515.370581" xlink:href="#me68a479173" y="130.383762"/>
     <use style="fill:#1f77b4;stroke:#1f77b4;" x="575.188769" xlink:href="#me68a479173" y="85.253856"/>
     <use style="fill:#1f77b4;stroke:#1f77b4;" x="455.116044" xlink:href="#me68a479173" y="153.693961"/>
     <use style="fill:#1f77b4;stroke:#1f77b4;" x="586.880009" xlink:href="#me68a479173" y="141.784243"/>
     <use style="fill:#1f77b4;stroke:#1f77b4;" x="568.076166" xlink:href="#me68a479173" y="135.712324"/>
     <use style="fill:#1f77b4;stroke:#1f77b4;" x="610.642168" xlink:href="#me68a479173" y="144.852613"/>
     <use style="fill:#1f77b4;stroke:#1f77b4;" x="598.956843" xlink:href="#me68a479173" y="114.574395"/>
     <use style="fill:#1f77b4;stroke:#1f77b4;" x="573.593596" xlink:href="#me68a479173" y="99.725357"/>
     <use style="fill:#1f77b4;stroke:#1f77b4;" x="664.84855" xlink:href="#me68a479173" y="82.675967"/>
     <use style="fill:#1f77b4;stroke:#1f77b4;" x="538.690355" xlink:href="#me68a479173" y="96.415802"/>
     <use style="fill:#1f77b4;stroke:#1f77b4;" x="570.373364" xlink:href="#me68a479173" y="168.244789"/>
     <use style="fill:#1f77b4;stroke:#1f77b4;" x="501.311676" xlink:href="#me68a479173" y="156.212656"/>
     <use style="fill:#1f77b4;stroke:#1f77b4;" x="552.852146" xlink:href="#me68a479173" y="202.282111"/>
     <use style="fill:#1f77b4;stroke:#1f77b4;" x="608.311673" xlink:href="#me68a479173" y="127.569347"/>
     <use style="fill:#1f77b4;stroke:#1f77b4;" x="442.15145" xlink:href="#me68a479173" y="151.237209"/>
     <use style="fill:#1f77b4;stroke:#1f77b4;" x="480.555871" xlink:href="#me68a479173" y="127.652191"/>
     <use style="fill:#1f77b4;stroke:#1f77b4;" x="615.8968" xlink:href="#me68a479173" y="154.799185"/>
     <use style="fill:#1f77b4;stroke:#1f77b4;" x="582.440294" xlink:href="#me68a479173" y="114.634717"/>
     <use style="fill:#1f77b4;stroke:#1f77b4;" x="619.955456" xlink:href="#me68a479173" y="139.812805"/>
     <use style="fill:#1f77b4;stroke:#1f77b4;" x="548.613336" xlink:href="#me68a479173" y="136.839367"/>
     <use style="fill:#1f77b4;stroke:#1f77b4;" x="616.820027" xlink:href="#me68a479173" y="180.329047"/>
     <use style="fill:#1f77b4;stroke:#1f77b4;" x="609.604145" xlink:href="#me68a479173" y="90.084487"/>
     <use style="fill:#1f77b4;stroke:#1f77b4;" x="589.803342" xlink:href="#me68a479173" y="166.300312"/>
     <use style="fill:#1f77b4;stroke:#1f77b4;" x="554.681208" xlink:href="#me68a479173" y="176.937375"/>
     <use style="fill:#1f77b4;stroke:#1f77b4;" x="578.457521" xlink:href="#me68a479173" y="44.951382"/>
     <use style="fill:#1f77b4;stroke:#1f77b4;" x="485.578896" xlink:href="#me68a479173" y="123.336253"/>
     <use style="fill:#1f77b4;stroke:#1f77b4;" x="597.277389" xlink:href="#me68a479173" y="144.596791"/>
     <use style="fill:#1f77b4;stroke:#1f77b4;" x="595.29703" xlink:href="#me68a479173" y="100.479295"/>
     <use style="fill:#1f77b4;stroke:#1f77b4;" x="572.587192" xlink:href="#me68a479173" y="119.04023"/>
     <use style="fill:#1f77b4;stroke:#1f77b4;" x="612.5299" xlink:href="#me68a479173" y="148.996049"/>
     <use style="fill:#1f77b4;stroke:#1f77b4;" x="459.505637" xlink:href="#me68a479173" y="124.866224"/>
     <use style="fill:#1f77b4;stroke:#1f77b4;" x="541.237484" xlink:href="#me68a479173" y="142.125823"/>
     <use style="fill:#1f77b4;stroke:#1f77b4;" x="556.946735" xlink:href="#me68a479173" y="120.793406"/>
     <use style="fill:#1f77b4;stroke:#1f77b4;" x="479.194147" xlink:href="#me68a479173" y="117.913304"/>
     <use style="fill:#1f77b4;stroke:#1f77b4;" x="505.303206" xlink:href="#me68a479173" y="46.990311"/>
     <use style="fill:#1f77b4;stroke:#1f77b4;" x="591.077225" xlink:href="#me68a479173" y="109.006505"/>
     <use style="fill:#1f77b4;stroke:#1f77b4;" x="573.352067" xlink:href="#me68a479173" y="156.810576"/>
     <use style="fill:#1f77b4;stroke:#1f77b4;" x="571.284713" xlink:href="#me68a479173" y="130.734173"/>
     <use style="fill:#1f77b4;stroke:#1f77b4;" x="599.85376" xlink:href="#me68a479173" y="241.608618"/>
     <use style="fill:#1f77b4;stroke:#1f77b4;" x="509.278195" xlink:href="#me68a479173" y="136.211946"/>
     <use style="fill:#1f77b4;stroke:#1f77b4;" x="550.207666" xlink:href="#me68a479173" y="116.290439"/>
     <use style="fill:#1f77b4;stroke:#1f77b4;" x="512.739086" xlink:href="#me68a479173" y="92.022123"/>
     <use style="fill:#1f77b4;stroke:#1f77b4;" x="578.567881" xlink:href="#me68a479173" y="119.893163"/>
     <use style="fill:#1f77b4;stroke:#1f77b4;" x="570.135222" xlink:href="#me68a479173" y="90.837455"/>
     <use style="fill:#1f77b4;stroke:#1f77b4;" x="579.971904" xlink:href="#me68a479173" y="95.131352"/>
     <use style="fill:#1f77b4;stroke:#1f77b4;" x="542.061044" xlink:href="#me68a479173" y="125.399653"/>
     <use style="fill:#1f77b4;stroke:#1f77b4;" x="582.31133" xlink:href="#me68a479173" y="112.766722"/>
     <use style="fill:#1f77b4;stroke:#1f77b4;" x="639.150487" xlink:href="#me68a479173" y="197.960732"/>
    </g>
   </g>
   <g id="matplotlib.axis_3">
    <g id="xtick_6"/>
    <g id="xtick_7"/>
    <g id="xtick_8"/>
    <g id="xtick_9"/>
    <g id="xtick_10"/>
   </g>
   <g id="matplotlib.axis_4">
    <g id="ytick_6"/>
    <g id="ytick_7"/>
    <g id="ytick_8"/>
    <g id="ytick_9"/>
    <g id="ytick_10"/>
    <g id="ytick_11"/>
   </g>
   <g id="patch_8">
    <path d="M 430.411765 252 
L 430.411765 34.56 
" style="fill:none;stroke:#000000;stroke-linecap:square;stroke-linejoin:miter;stroke-width:0.8;"/>
   </g>
   <g id="patch_9">
    <path d="M 676.588235 252 
L 676.588235 34.56 
" style="fill:none;stroke:#000000;stroke-linecap:square;stroke-linejoin:miter;stroke-width:0.8;"/>
   </g>
   <g id="patch_10">
    <path d="M 430.411765 252 
L 676.588235 252 
" style="fill:none;stroke:#000000;stroke-linecap:square;stroke-linejoin:miter;stroke-width:0.8;"/>
   </g>
   <g id="patch_11">
    <path d="M 430.411765 34.56 
L 676.588235 34.56 
" style="fill:none;stroke:#000000;stroke-linecap:square;stroke-linejoin:miter;stroke-width:0.8;"/>
   </g>
   <g id="text_2">
    <!-- covariance of zero -->
    <defs>
     <path d="M 37.109375 75.984375 
L 37.109375 68.5 
L 28.515625 68.5 
Q 23.6875 68.5 21.796875 66.546875 
Q 19.921875 64.59375 19.921875 59.515625 
L 19.921875 54.6875 
L 34.71875 54.6875 
L 34.71875 47.703125 
L 19.921875 47.703125 
L 19.921875 0 
L 10.890625 0 
L 10.890625 47.703125 
L 2.296875 47.703125 
L 2.296875 54.6875 
L 10.890625 54.6875 
L 10.890625 58.5 
Q 10.890625 67.625 15.140625 71.796875 
Q 19.390625 75.984375 28.609375 75.984375 
z
" id="DejaVuSans-102"/>
     <path d="M 5.515625 54.6875 
L 48.1875 54.6875 
L 48.1875 46.484375 
L 14.40625 7.171875 
L 48.1875 7.171875 
L 48.1875 0 
L 4.296875 0 
L 4.296875 8.203125 
L 38.09375 47.515625 
L 5.515625 47.515625 
z
" id="DejaVuSans-122"/>
    </defs>
    <g transform="translate(461.20625 28.56)scale(0.2 -0.2)">
     <use xlink:href="#DejaVuSans-99"/>
     <use x="54.980469" xlink:href="#DejaVuSans-111"/>
     <use x="116.162109" xlink:href="#DejaVuSans-118"/>
     <use x="175.341797" xlink:href="#DejaVuSans-97"/>
     <use x="236.621094" xlink:href="#DejaVuSans-114"/>
     <use x="277.734375" xlink:href="#DejaVuSans-105"/>
     <use x="305.517578" xlink:href="#DejaVuSans-97"/>
     <use x="366.796875" xlink:href="#DejaVuSans-110"/>
     <use x="430.175781" xlink:href="#DejaVuSans-99"/>
     <use x="485.15625" xlink:href="#DejaVuSans-101"/>
     <use x="546.679688" xlink:href="#DejaVuSans-32"/>
     <use x="578.466797" xlink:href="#DejaVuSans-111"/>
     <use x="639.648438" xlink:href="#DejaVuSans-102"/>
     <use x="674.853516" xlink:href="#DejaVuSans-32"/>
     <use x="706.640625" xlink:href="#DejaVuSans-122"/>
     <use x="759.130859" xlink:href="#DejaVuSans-101"/>
     <use x="820.654297" xlink:href="#DejaVuSans-114"/>
     <use x="861.736328" xlink:href="#DejaVuSans-111"/>
    </g>
   </g>
  </g>
  <g id="axes_3">
   <g id="patch_12">
    <path d="M 725.823529 252 
L 972 252 
L 972 34.56 
L 725.823529 34.56 
z
" style="fill:#ffffff;"/>
   </g>
   <g id="PathCollection_3">
    <g clip-path="url(#p151c155821)">
     <use style="fill:#1f77b4;stroke:#1f77b4;" x="820.685658" xlink:href="#me68a479173" y="116.371251"/>
     <use style="fill:#1f77b4;stroke:#1f77b4;" x="866.572747" xlink:href="#me68a479173" y="163.760182"/>
     <use style="fill:#1f77b4;stroke:#1f77b4;" x="810.782345" xlink:href="#me68a479173" y="110.327149"/>
     <use style="fill:#1f77b4;stroke:#1f77b4;" x="870.600534" xlink:href="#me68a479173" y="169.020251"/>
     <use style="fill:#1f77b4;stroke:#1f77b4;" x="750.527809" xlink:href="#me68a479173" y="57.82119"/>
     <use style="fill:#1f77b4;stroke:#1f77b4;" x="882.291774" xlink:href="#me68a479173" y="171.803656"/>
     <use style="fill:#1f77b4;stroke:#1f77b4;" x="863.487931" xlink:href="#me68a479173" y="160.54913"/>
     <use style="fill:#1f77b4;stroke:#1f77b4;" x="906.053932" xlink:href="#me68a479173" y="191.767498"/>
     <use style="fill:#1f77b4;stroke:#1f77b4;" x="894.368608" xlink:href="#me68a479173" y="176.958111"/>
     <use style="fill:#1f77b4;stroke:#1f77b4;" x="869.00536" xlink:href="#me68a479173" y="162.909057"/>
     <use style="fill:#1f77b4;stroke:#1f77b4;" x="960.260314" xlink:href="#me68a479173" y="241.594437"/>
     <use style="fill:#1f77b4;stroke:#1f77b4;" x="834.10212" xlink:href="#me68a479173" y="134.489576"/>
     <use style="fill:#1f77b4;stroke:#1f77b4;" x="865.785129" xlink:href="#me68a479173" y="152.775266"/>
     <use style="fill:#1f77b4;stroke:#1f77b4;" x="796.723441" xlink:href="#me68a479173" y="94.942226"/>
     <use style="fill:#1f77b4;stroke:#1f77b4;" x="848.263911" xlink:href="#me68a479173" y="141.468746"/>
     <use style="fill:#1f77b4;stroke:#1f77b4;" x="903.723438" xlink:href="#me68a479173" y="186.856566"/>
     <use style="fill:#1f77b4;stroke:#1f77b4;" x="737.563215" xlink:href="#me68a479173" y="44.965563"/>
     <use style="fill:#1f77b4;stroke:#1f77b4;" x="775.967636" xlink:href="#me68a479173" y="83.420121"/>
     <use style="fill:#1f77b4;stroke:#1f77b4;" x="911.308564" xlink:href="#me68a479173" y="197.6088"/>
     <use style="fill:#1f77b4;stroke:#1f77b4;" x="877.852059" xlink:href="#me68a479173" y="165.492185"/>
     <use style="fill:#1f77b4;stroke:#1f77b4;" x="915.367221" xlink:href="#me68a479173" y="199.081825"/>
     <use style="fill:#1f77b4;stroke:#1f77b4;" x="844.0251" xlink:href="#me68a479173" y="137.904587"/>
     <use style="fill:#1f77b4;stroke:#1f77b4;" x="912.231792" xlink:href="#me68a479173" y="198.539978"/>
     <use style="fill:#1f77b4;stroke:#1f77b4;" x="905.01591" xlink:href="#me68a479173" y="185.350347"/>
     <use style="fill:#1f77b4;stroke:#1f77b4;" x="885.215107" xlink:href="#me68a479173" y="175.71324"/>
     <use style="fill:#1f77b4;stroke:#1f77b4;" x="850.092972" xlink:href="#me68a479173" y="146.082748"/>
     <use style="fill:#1f77b4;stroke:#1f77b4;" x="873.869286" xlink:href="#me68a479173" y="163.539565"/>
     <use style="fill:#1f77b4;stroke:#1f77b4;" x="780.990661" xlink:href="#me68a479173" y="84.424668"/>
     <use style="fill:#1f77b4;stroke:#1f77b4;" x="892.689153" xlink:href="#me68a479173" y="171.792512"/>
     <use style="fill:#1f77b4;stroke:#1f77b4;" x="890.708795" xlink:href="#me68a479173" y="176.61276"/>
     <use style="fill:#1f77b4;stroke:#1f77b4;" x="867.998956" xlink:href="#me68a479173" y="159.152314"/>
     <use style="fill:#1f77b4;stroke:#1f77b4;" x="907.941664" xlink:href="#me68a479173" y="197.485865"/>
     <use style="fill:#1f77b4;stroke:#1f77b4;" x="754.917401" xlink:href="#me68a479173" y="67.610695"/>
     <use style="fill:#1f77b4;stroke:#1f77b4;" x="836.649248" xlink:href="#me68a479173" y="131.577671"/>
     <use style="fill:#1f77b4;stroke:#1f77b4;" x="852.3585" xlink:href="#me68a479173" y="148.411538"/>
     <use style="fill:#1f77b4;stroke:#1f77b4;" x="774.605912" xlink:href="#me68a479173" y="76.028193"/>
     <use style="fill:#1f77b4;stroke:#1f77b4;" x="800.71497" xlink:href="#me68a479173" y="100.309612"/>
     <use style="fill:#1f77b4;stroke:#1f77b4;" x="886.48899" xlink:href="#me68a479173" y="175.949401"/>
     <use style="fill:#1f77b4;stroke:#1f77b4;" x="868.763831" xlink:href="#me68a479173" y="161.733049"/>
     <use style="fill:#1f77b4;stroke:#1f77b4;" x="866.696477" xlink:href="#me68a479173" y="150.948072"/>
     <use style="fill:#1f77b4;stroke:#1f77b4;" x="895.265525" xlink:href="#me68a479173" y="179.331639"/>
     <use style="fill:#1f77b4;stroke:#1f77b4;" x="804.68996" xlink:href="#me68a479173" y="100.270326"/>
     <use style="fill:#1f77b4;stroke:#1f77b4;" x="845.619431" xlink:href="#me68a479173" y="134.346815"/>
     <use style="fill:#1f77b4;stroke:#1f77b4;" x="808.150851" xlink:href="#me68a479173" y="111.090207"/>
     <use style="fill:#1f77b4;stroke:#1f77b4;" x="873.979646" xlink:href="#me68a479173" y="163.296479"/>
     <use style="fill:#1f77b4;stroke:#1f77b4;" x="865.546986" xlink:href="#me68a479173" y="158.4042"/>
     <use style="fill:#1f77b4;stroke:#1f77b4;" x="875.383669" xlink:href="#me68a479173" y="166.259111"/>
     <use style="fill:#1f77b4;stroke:#1f77b4;" x="837.472809" xlink:href="#me68a479173" y="138.606572"/>
     <use style="fill:#1f77b4;stroke:#1f77b4;" x="877.723094" xlink:href="#me68a479173" y="166.497053"/>
     <use style="fill:#1f77b4;stroke:#1f77b4;" x="934.562251" xlink:href="#me68a479173" y="215.968138"/>
    </g>
   </g>
   <g id="matplotlib.axis_5">
    <g id="xtick_11"/>
    <g id="xtick_12"/>
    <g id="xtick_13"/>
    <g id="xtick_14"/>
    <g id="xtick_15"/>
   </g>
   <g id="matplotlib.axis_6">
    <g id="ytick_12"/>
    <g id="ytick_13"/>
    <g id="ytick_14"/>
    <g id="ytick_15"/>
    <g id="ytick_16"/>
   </g>
   <g id="patch_13">
    <path d="M 725.823529 252 
L 725.823529 34.56 
" style="fill:none;stroke:#000000;stroke-linecap:square;stroke-linejoin:miter;stroke-width:0.8;"/>
   </g>
   <g id="patch_14">
    <path d="M 972 252 
L 972 34.56 
" style="fill:none;stroke:#000000;stroke-linecap:square;stroke-linejoin:miter;stroke-width:0.8;"/>
   </g>
   <g id="patch_15">
    <path d="M 725.823529 252 
L 972 252 
" style="fill:none;stroke:#000000;stroke-linecap:square;stroke-linejoin:miter;stroke-width:0.8;"/>
   </g>
   <g id="patch_16">
    <path d="M 725.823529 34.56 
L 972 34.56 
" style="fill:none;stroke:#000000;stroke-linecap:square;stroke-linejoin:miter;stroke-width:0.8;"/>
   </g>
   <g id="text_3">
    <!-- large negative covariance -->
    <g transform="translate(718.630515 28.56)scale(0.2 -0.2)">
     <use xlink:href="#DejaVuSans-108"/>
     <use x="27.783203" xlink:href="#DejaVuSans-97"/>
     <use x="89.0625" xlink:href="#DejaVuSans-114"/>
     <use x="130.160156" xlink:href="#DejaVuSans-103"/>
     <use x="193.636719" xlink:href="#DejaVuSans-101"/>
     <use x="255.160156" xlink:href="#DejaVuSans-32"/>
     <use x="286.947266" xlink:href="#DejaVuSans-110"/>
     <use x="350.326172" xlink:href="#DejaVuSans-101"/>
     <use x="411.849609" xlink:href="#DejaVuSans-103"/>
     <use x="475.326172" xlink:href="#DejaVuSans-97"/>
     <use x="536.605469" xlink:href="#DejaVuSans-116"/>
     <use x="575.814453" xlink:href="#DejaVuSans-105"/>
     <use x="603.597656" xlink:href="#DejaVuSans-118"/>
     <use x="662.777344" xlink:href="#DejaVuSans-101"/>
     <use x="724.300781" xlink:href="#DejaVuSans-32"/>
     <use x="756.087891" xlink:href="#DejaVuSans-99"/>
     <use x="811.068359" xlink:href="#DejaVuSans-111"/>
     <use x="872.25" xlink:href="#DejaVuSans-118"/>
     <use x="931.429688" xlink:href="#DejaVuSans-97"/>
     <use x="992.708984" xlink:href="#DejaVuSans-114"/>
     <use x="1033.822266" xlink:href="#DejaVuSans-105"/>
     <use x="1061.605469" xlink:href="#DejaVuSans-97"/>
     <use x="1122.884766" xlink:href="#DejaVuSans-110"/>
     <use x="1186.263672" xlink:href="#DejaVuSans-99"/>
     <use x="1241.244141" xlink:href="#DejaVuSans-101"/>
    </g>
   </g>
  </g>
 </g>
 <defs>
  <clipPath id="p11f445e7ad">
   <rect height="217.44" width="246.176471" x="135" y="34.56"/>
  </clipPath>
  <clipPath id="pdd628d3d34">
   <rect height="217.44" width="246.176471" x="430.411765" y="34.56"/>
  </clipPath>
  <clipPath id="p151c155821">
   <rect height="217.44" width="246.176471" x="725.823529" y="34.56"/>
  </clipPath>
 </defs>
</svg>
